<svg width="16" height="16" viewBox="0 0 16 16" fill="none" xmlns="http://www.w3.org/2000/svg">
<path d="M11.3333 1.99984H14C14.1768 1.99984 14.3464 2.07007 14.4714 2.1951C14.5964 2.32012 14.6667 2.48969 14.6667 2.6665V13.3332C14.6667 13.51 14.5964 13.6796 14.4714 13.8046C14.3464 13.9296 14.1768 13.9998 14 13.9998H2.00001C1.8232 13.9998 1.65363 13.9296 1.52861 13.8046C1.40358 13.6796 1.33334 13.51 1.33334 13.3332V2.6665C1.33334 2.48969 1.40358 2.32012 1.52861 2.1951C1.65363 2.07007 1.8232 1.99984 2.00001 1.99984H4.66668V0.666504H6.00001V1.99984H10V0.666504H11.3333V1.99984ZM13.3333 7.33317H2.66668V12.6665H13.3333V7.33317ZM10 3.33317H6.00001V4.6665H4.66668V3.33317H2.66668V5.99984H13.3333V3.33317H11.3333V4.6665H10V3.33317ZM4.00001 8.6665H5.33334V9.99984H4.00001V8.6665ZM7.33334 8.6665H8.66668V9.99984H7.33334V8.6665ZM10.6667 8.6665H12V9.99984H10.6667V8.6665Z" fill="black"/>
</svg>
