<svg width="30" height="30" viewBox="0 0 30 30" fill="none" xmlns="http://www.w3.org/2000/svg">
<circle cx="15" cy="15" r="15" fill="#656565"/>
<path d="M22.5455 17.6V20H25V21.6H22.5455V24H20.9091V21.6H18.4545V20H20.9091V17.6H22.5455ZM22.552 8C23.0004 8 23.3636 8.356 23.3636 8.7944V16.2736C22.8381 16.0921 22.2847 15.9995 21.7273 16V9.6H8.63636L8.63718 20.8L16.2397 13.3656C16.3804 13.2276 16.5678 13.1446 16.7667 13.1322C16.9656 13.1198 17.1623 13.1789 17.3197 13.2984L17.3958 13.3664L20.2971 16.2064C19.6627 16.3954 19.074 16.7081 18.5666 17.1256C18.0591 17.543 17.6434 18.0567 17.3445 18.6355C17.0455 19.2144 16.8696 19.8464 16.8272 20.4935C16.7849 21.1406 16.877 21.7894 17.098 22.4008L7.81164 22.4C7.5963 22.3998 7.38986 22.316 7.23767 22.167C7.08549 22.0181 7 21.8161 7 21.6056V8.7944C7.0015 8.5843 7.08746 8.38321 7.23933 8.23457C7.39119 8.08593 7.59677 8.00168 7.81164 8H22.552ZM11.9091 11.2C12.3431 11.2 12.7593 11.3686 13.0662 11.6686C13.3731 11.9687 13.5455 12.3757 13.5455 12.8C13.5455 13.2243 13.3731 13.6313 13.0662 13.9314C12.7593 14.2314 12.3431 14.4 11.9091 14.4C11.4751 14.4 11.0589 14.2314 10.752 13.9314C10.4451 13.6313 10.2727 13.2243 10.2727 12.8C10.2727 12.3757 10.4451 11.9687 10.752 11.6686C11.0589 11.3686 11.4751 11.2 11.9091 11.2Z" fill="white"/>
</svg>
