<svg width="24" height="25" viewBox="0 0 24 25" fill="none" xmlns="http://www.w3.org/2000/svg">
<path d="M18.031 17.2586L22.314 21.5406L20.899 22.9556L16.617 18.6726C15.0237 19.9498 13.042 20.6445 11 20.6416C6.032 20.6416 2 16.6096 2 11.6416C2 6.6736 6.032 2.6416 11 2.6416C15.968 2.6416 20 6.6736 20 11.6416C20.0029 13.6836 19.3082 15.6653 18.031 17.2586ZM16.025 16.5166C17.2941 15.2115 18.0029 13.462 18 11.6416C18 7.7736 14.867 4.6416 11 4.6416C7.132 4.6416 4 7.7736 4 11.6416C4 15.5086 7.132 18.6416 11 18.6416C12.8204 18.6445 14.5699 17.9357 15.875 16.6666L16.025 16.5166V16.5166Z" fill="#A6A6A6"/>
</svg>
