<svg width="16" height="16" viewBox="0 0 16 16" fill="none" xmlns="http://www.w3.org/2000/svg">
<path d="M11.3333 1.99984H14C14.1768 1.99984 14.3464 2.07008 14.4714 2.1951C14.5964 2.32012 14.6667 2.48969 14.6667 2.6665V13.3332C14.6667 13.51 14.5964 13.6796 14.4714 13.8046C14.3464 13.9296 14.1768 13.9998 14 13.9998H2C1.82319 13.9998 1.65362 13.9296 1.52859 13.8046C1.40357 13.6796 1.33333 13.51 1.33333 13.3332V2.6665C1.33333 2.48969 1.40357 2.32012 1.52859 2.1951C1.65362 2.07008 1.82319 1.99984 2 1.99984H4.66667V0.666504H6V1.99984H10V0.666504H11.3333V1.99984ZM13.3333 7.33317H2.66667V12.6665H13.3333V7.33317ZM10 3.33317H6V4.6665H4.66667V3.33317H2.66667V5.99984H13.3333V3.33317H11.3333V4.6665H10V3.33317ZM4 8.6665H5.33333V9.99984H4V8.6665ZM7.33333 8.6665H8.66667V9.99984H7.33333V8.6665ZM10.6667 8.6665H12V9.99984H10.6667V8.6665Z" fill="#949494"/>
</svg>
