<svg width="16" height="16" viewBox="0 0 16 16" fill="none" xmlns="http://www.w3.org/2000/svg">
<path d="M0.787323 8C1.41399 4.58667 4.40532 2 7.99999 2C11.5947 2 14.5853 4.58667 15.2127 8C14.586 11.4133 11.5947 14 7.99999 14C4.40532 14 1.41466 11.4133 0.787323 8ZM7.99999 11.3333C8.88404 11.3333 9.73189 10.9821 10.357 10.357C10.9821 9.7319 11.3333 8.88406 11.3333 8C11.3333 7.11595 10.9821 6.2681 10.357 5.64298C9.73189 5.01786 8.88404 4.66667 7.99999 4.66667C7.11593 4.66667 6.26809 5.01786 5.64297 5.64298C5.01785 6.2681 4.66666 7.11595 4.66666 8C4.66666 8.88406 5.01785 9.7319 5.64297 10.357C6.26809 10.9821 7.11593 11.3333 7.99999 11.3333ZM7.99999 10C7.46956 10 6.96085 9.78929 6.58578 9.41421C6.2107 9.03914 5.99999 8.53043 5.99999 8C5.99999 7.46957 6.2107 6.96086 6.58578 6.58579C6.96085 6.21071 7.46956 6 7.99999 6C8.53042 6 9.03913 6.21071 9.4142 6.58579C9.78928 6.96086 9.99999 7.46957 9.99999 8C9.99999 8.53043 9.78928 9.03914 9.4142 9.41421C9.03913 9.78929 8.53042 10 7.99999 10Z" fill="#C9C9C9"/>
</svg>
