<svg width="165" height="72" viewBox="0 0 165 72" fill="none" xmlns="http://www.w3.org/2000/svg">
<path d="M0.000872999 57.2235C-0.0813259 51.5514 5.65652 47.7949 10.7171 46.0929C12.8686 44.8645 15.5561 44.0562 18.5885 43.8141C54.9616 40.9068 91.6902 41.286 127.7 44.6669C137.686 46.3101 160.074 45.9416 164.706 55.1886C167.665 68.979 147.553 72.4774 135.672 71.9504C100.18 70.5422 64.6896 69.1357 29.1994 67.7292C19.9931 66.8515 1.91825 68.8598 0.000872999 57.2235Z" fill="#C1C1C1"/>
<path d="M152.285 48.2991C152.024 48.1193 151.761 47.9448 151.497 47.7739C151.904 45.9206 153.236 43.8643 152.596 42.0127C154.474 34.4677 144.728 29.9421 140.266 25.2385C142.032 23.8872 150.05 21.8594 149.269 20.0275C147.407 16.4526 142.487 15.5624 138.953 14.067C122.163 8.09395 104.032 5.17956 86.1649 6.55041C80.5736 6.81568 75.8936 9.21734 71.5121 12.3347C68.2724 13.6931 65.0505 15.1583 61.8198 16.5523C53.5927 17.389 45.4944 19.8299 38.9738 24.9697C35.593 27.7327 29.0492 31.4875 29.4388 36.2498C26.7852 38.3969 27.0175 38.842 25.6004 41.5979C26.2544 44.2933 23.1059 45.5663 20.9008 46.3318C17.6754 47.4089 2.32027 52.9511 11.3139 55.9705C20.7042 57.393 30.4484 56.1254 39.9245 56.2589C43.4966 60.505 50.3602 58.917 55.2599 58.2155C63.1743 57.0013 70.9027 55.0447 78.8707 54.0727C82.8948 53.6187 86.9458 53.4798 90.9789 53.8555C100.753 54.8329 112.538 60.6902 120.837 52.7606C125.386 50.026 131.317 51.315 136.403 51.6924C135.218 51.9132 134.187 52.5487 133.885 53.6561C133.51 55.0305 134.387 56.939 136.288 57.1883C142.482 58.0001 141.295 58.3633 147.562 58.1265C150.014 57.8968 152.707 58.1835 155.005 57.2399C159.479 54.6887 155.577 50.2058 152.285 48.3009V48.2991Z" fill="url(#paint0_linear_748_1566)"/>
<path d="M153.182 52.7304C150.811 51.3809 149.131 49.2161 148.264 46.6542C147.98 50.4659 144.033 51.3418 140.557 51.1032C141.79 49.6184 141.437 47.2648 139.691 46.2696C144.176 42.1731 140.304 38.8653 138.787 35.5521C141.027 34.2738 142.546 31.5374 140.631 29.2853C142.636 28.5126 143.861 25.8724 142.814 23.9194C143.847 22.5023 143.792 20.3267 142.897 18.8277C157.907 14.8291 131.498 1.80062 125.754 1.20599C114.466 -4.04242 73.7708 8.78484 94.9388 21.443C89.5941 27.797 94.4546 26.8213 93.6487 31.6585C92.1548 38.9881 89.1563 40.2575 95.6054 46.6827C91.9028 45.3118 82.6626 44.151 85.6021 50.7347C77.0981 51.1513 77.3804 49.6647 70.2809 46.6542C65.433 44.0015 51.4842 46.2768 60.1312 52.4741C59.3181 54.2135 60.2026 56.8608 62.2898 57.2471C70.188 58.2833 115.067 66.4016 116.246 57.0673C120.828 57.0744 125.222 57.0976 129.857 56.5136C137.691 58.7889 147.357 59.0542 153.575 52.9637C153.439 52.8942 153.309 52.8159 153.182 52.7287V52.7304Z" fill="#FFEDCC"/>
<path d="M64.4287 26.3459C62.0288 23.8695 57.9386 19.7106 55.5619 24.489C55.5048 24.5086 55.4476 24.5282 55.3904 24.546C55.4011 24.5496 55.4118 24.5513 55.4226 24.5549C55.4118 24.5513 55.4011 24.5478 55.3886 24.546C55.1259 24.6742 54.9008 24.6047 55.2188 24.546C53.3908 24.8593 51.5789 24.8949 49.7276 24.9305C37.0886 24.6368 38.1286 31.3486 27.1747 30.592C25.9811 30.6223 21.1027 29.9261 18.9495 28.8081C18.526 28.6835 18.1293 28.4965 17.7469 28.2793C15.9349 27.5832 14.2481 26.5969 12.5862 25.5804C11.4801 25.0356 10.1417 25.0213 9.15887 25.8189C7.80258 26.9192 7.33798 29.0467 8.54237 30.5564C16.6997 40.9054 31.0988 45.2245 43.1713 40.1684C45.7624 39.2373 47.8763 37.4017 50.3691 36.3175C51.6485 35.9419 53.003 36.0594 54.3021 36.2463C57.826 36.7163 61.5982 37.8682 65.0684 36.6558C70.1111 34.2025 67.9454 29.1642 64.4305 26.3459H64.4287ZM61.7161 33.2055C61.6357 33.0702 61.5482 32.9402 61.4713 32.8032C61.6375 33.0026 61.7465 33.1628 61.7161 33.2055Z" fill="#FFEDCC"/>
<path d="M102.753 1.94287C99.1488 3.60748 95.8751 5.99312 93.2198 8.99831C92.4585 9.85999 93.8345 10.9958 94.5939 10.1359C97.1814 7.2073 100.405 4.90534 103.956 3.34221C104.091 3.0716 104.238 2.81167 104.397 2.56243C103.829 2.40754 103.28 2.20102 102.753 1.94465V1.94287Z" fill="#FFCE76"/>
<path d="M124.291 39.0234C123.798 38.3842 123.128 37.8857 122.361 37.7095C121.932 37.6116 121.444 37.7059 120.962 37.9249C120.39 38.2276 119.799 38.8204 119.405 39.3047C118.9 39.9278 118.617 40.8358 118.964 41.6066C119.327 42.4131 120.361 42.7727 121.157 42.9276C122.486 43.1876 124.898 42.7834 125.125 41.1153C125.231 40.3355 124.748 39.618 124.291 39.0234Z" fill="black"/>
<path d="M98.5645 36.7928C98.9183 31.7011 98.1106 7.39427 89.2081 11.8362C80.7184 15.5321 72.5664 19.075 75.8168 30.0133C77.443 35.2956 80.9864 39.8372 81.7691 45.3971C86.9673 57.9662 99.2757 46.0416 98.5627 36.7946L98.5645 36.7928Z" fill="#FFA800"/>
<path d="M160.246 26.3386C160.167 19.3313 155.907 12.5536 149.515 10.1038C146.399 9.52165 141.792 10.3869 140.572 13.766C138.308 23.0023 138.711 33.0754 142.659 41.6815C147.877 50.4318 152.798 44.5389 155.789 37.909C157.687 34.4106 160.341 30.6043 160.248 26.3404L160.246 26.3386Z" fill="#FFA800"/>
<path d="M114.477 31.861C114.618 30.0451 113.35 28.149 111.323 28.5674C109.931 28.8558 108.412 29.876 107.46 30.8996C106.529 31.9002 105.73 33.4028 105.936 34.8075C105.939 35.3416 106.134 35.8881 106.604 36.4187C106.918 36.7729 107.256 37.0222 107.608 37.186C107.758 37.275 107.916 37.3551 108.092 37.4174C109.69 37.9836 111.509 37.0418 112.626 35.9041C113.435 35.0799 114.007 34.0686 114.291 32.9684C114.313 32.9061 114.336 32.842 114.356 32.7797C114.445 32.4859 114.477 32.1939 114.472 31.9091C114.472 31.8931 114.475 31.8788 114.477 31.8628V31.861Z" fill="black"/>
<path d="M126.814 31.3558C126.725 29.5363 128.045 27.6776 130.059 28.153C131.442 28.4805 132.931 29.5434 133.855 30.5938C134.757 31.6193 135.513 33.145 135.268 34.5426C135.25 35.0767 135.039 35.6161 134.555 36.1342C134.232 36.4796 133.885 36.7181 133.529 36.873C133.377 36.9567 133.217 37.0332 133.038 37.0902C131.424 37.6101 129.632 36.6184 128.549 35.4505C127.763 34.6049 127.22 33.5776 126.968 32.4685C126.948 32.4044 126.927 32.3421 126.909 32.278C126.828 31.9825 126.803 31.6887 126.818 31.4038C126.818 31.3878 126.814 31.3736 126.814 31.3576V31.3558Z" fill="black"/>
<path d="M113.325 31.2824C113.319 31.2593 113.31 31.2379 113.301 31.2148C113.296 31.1435 113.285 31.0723 113.266 30.9993C113.21 30.8053 113.112 30.6362 112.969 30.4937C112.665 30.1911 112.26 30.1145 111.85 30.1982C111.529 30.2641 111.259 30.4759 111.062 30.7269C110.771 31.1026 110.696 31.5868 110.884 32.0284C110.891 32.0444 110.9 32.0586 110.907 32.0729C110.916 32.2402 110.955 32.404 111.05 32.566C111.189 32.8046 111.463 33.0307 111.738 33.093C112.033 33.1607 112.363 33.1446 112.624 32.9773C112.889 32.8064 113.04 32.5856 113.153 32.2919C113.162 32.2669 113.174 32.2402 113.183 32.2153C113.191 32.1975 113.199 32.1797 113.207 32.1619C113.341 31.8753 113.41 31.594 113.323 31.2788L113.325 31.2824Z" fill="white"/>
<path d="M132.466 30.4958C131.948 30.097 131.246 30.1041 130.729 30.5029C130.261 30.8625 130.023 31.4874 130.2 32.0642C130.284 32.3402 130.468 32.5912 130.719 32.7407C131.063 33.0416 131.546 33.168 132.003 33.0434C132.241 32.9793 132.489 32.8351 132.657 32.6553C132.877 32.4221 133 32.1515 133.042 31.8399C133.113 31.3111 132.884 30.818 132.466 30.4958V30.4958Z" fill="white"/>
<path d="M111.831 58.7298C111.118 57.95 109.308 58.2171 108.378 58.1868C104.372 58.258 99.7635 57.5975 96.2326 59.8621C94.5546 61.4609 98.3608 62.3724 99.3365 61.6585C101.554 61.4306 113.843 62.9207 111.831 58.728V58.7298Z" fill="#FFCE76"/>
<path d="M152.417 55.1033C151.283 54.6849 149.848 54.6706 148.656 54.7116C146.976 54.8042 143.643 55.0623 143.763 57.3215C144.23 58.7191 149.251 58.6977 150.605 58.5553C152.7 58.598 155.105 56.483 152.419 55.1033H152.417Z" fill="#FFCE76"/>
<path d="M145.614 46.567C144.698 48.7461 142.705 50.2611 140.666 51.3365C138.175 52.6503 135.393 53.4871 132.604 53.8556C131.369 54.0194 131.351 55.9796 132.604 55.814C138.217 55.0698 145.136 52.7269 147.51 47.0868C147.998 45.9261 146.097 45.4187 145.614 46.567V46.567Z" fill="#FFCE76"/>
<path d="M110.941 49.4365C107.312 46.8693 102.739 45.9738 98.3894 46.8568C97.151 47.1079 97.6746 48.9968 98.9112 48.7458C102.764 47.9642 106.752 48.8686 109.947 51.1296C110.98 51.8613 111.963 50.1629 110.939 49.4383L110.941 49.4365Z" fill="#FFCE76"/>
<path d="M127.488 57.4212C131.469 66.4973 141.244 60.2644 138.36 51.5675C137.423 47.2556 131.482 37.7771 129.661 46.7001C128.072 50.0845 125.978 53.6113 127.488 57.423V57.4212Z" fill="#6CCEFF"/>
<defs>
<linearGradient id="paint0_linear_748_1566" x1="8.52271" y1="32.6536" x2="157.022" y2="32.6536" gradientUnits="userSpaceOnUse">
<stop stop-color="#FFEDCC"/>
<stop offset="1" stop-color="#FFEDCC"/>
</linearGradient>
</defs>
</svg>
