<?xml version="1.0" encoding="UTF-8"?><svg id="Layer_2" xmlns="http://www.w3.org/2000/svg" viewBox="0 0 188.49 106.72"><path d="M78.73,45.27c6.57,0,6.58-10.21,0-10.21s-6.58,10.21,0,10.21h0Z"/><path d="M105.91,45.27c6.57,0,6.58-10.21,0-10.21s-6.58,10.21,0,10.21h0Z"/><path d="M31.7,57.14c.08-.78-.26,1.47-.05,.39,.12-.64,.23-1.29,.37-1.92,.47-2.1,1.14-4.15,1.95-6.14,.28-.69-.42,.92,.1-.23,.17-.37,.34-.74,.51-1.11,.31-.64,.63-1.28,.97-1.91,.82-1.51,1.73-2.97,2.74-4.37,1.89-2.64,4.57-5.4,7.33-7.49,1.8-1.37,3.61-2.47,4.66-4.57s1.25-4.6,2.04-6.82c1.24-3.52,3.2-6.83,5.43-9.81,.67-.89,3.09-4.27,4.3-4.64,.64-.2,1.88,.19,2.53,.32,1,.21,1.98,.47,2.95,.79,1.89,.61,3.64,1.5,5.33,2.54,2.74,1.7,5.47,4.27,7.02,6.58,1.34,2,2.68,3.6,5.01,4.49,2.14,.81,4.09,.46,6.29,.31s4.41-.13,6.57,.17c2.81,.4,5.05,.88,7.74-.44,2.07-1.02,3.15-2.7,4.43-4.52,.6-.86,1.92-2.32,3.03-3.35,2.65-2.47,5.88-4.42,9.37-5.51,1.46-.46,3.37-1,4.73-.99,.48,0,.28,.06,.69,.48,.49,.5,1,.97,1.48,1.47,2.3,2.42,3.93,4.64,5.63,7.65,.87,1.53,1.66,3.11,2.26,4.76,.8,2.19,1.03,4.63,2.09,6.71,1.17,2.31,3.32,3.43,5.28,4.96,1.78,1.38,3.42,2.95,4.93,4.62,2.26,2.5,4.16,5.38,5.74,8.55,.35,.71,.69,1.44,1,2.17-.37-.87,.09,.24,.13,.35,.12,.33,.25,.65,.36,.97,.4,1.11,.75,2.23,1.04,3.37,.2,.76,.36,1.53,.51,2.3,.19,1,.09,.68,0-.2,.26,2.28,1.77,4.25,4.25,4.25,2.1,0,4.51-1.96,4.25-4.25-1.24-10.98-7.86-21.58-16.43-28.34-1.01-.79-2.04-1.53-3.08-2.29-.82-.6-.23,.05-.53-.74-.39-1.03-.52-2.22-.85-3.28-.44-1.4-.99-2.76-1.57-4.11-1.65-3.83-3.87-7.3-6.46-10.56-1.87-2.36-4.14-5.19-6.92-6.48-4.64-2.15-10.74,.09-15.09,2.09-3.75,1.73-7.25,4.26-10.09,7.26-1.29,1.36-2.31,2.91-3.47,4.37-.37,.46-.33,.64-.71,.74,.02,0,.78,0-.21-.03s-2.01-.34-2.95-.46c-2.37-.3-4.74-.39-7.13-.24-.96,.06-3.01,.55-3.47,.16-.71-.58-1.38-2.01-1.95-2.73-.5-.64-1.01-1.27-1.56-1.86-1.55-1.7-3.33-3.17-5.19-4.53-3.58-2.61-7.82-4.54-12.16-5.44-2.44-.5-5.09-.97-7.51-.15-1.85,.63-3.3,1.89-4.64,3.26-2.58,2.64-4.87,5.66-6.77,8.83-1.13,1.89-2.08,3.86-2.93,5.89-.97,2.32-1.37,4.73-2.19,7.07-.67,1.9-.13,.48-.11,.43,.2-.31-.8,.64-.88,.7-1.11,.8-2.19,1.64-3.24,2.52-1.84,1.55-3.56,3.26-5.1,5.11-2.63,3.15-4.9,6.57-6.6,10.3-1.81,3.98-3.26,8.19-3.7,12.57-.23,2.29,2.12,4.25,4.25,4.25,2.49,0,4.03-1.96,4.25-4.25h0Z"/><g><path d="M1.18,80.02c0-2.75,1.44-4.13,4.31-4.13h13.87c2.46,0,3.7,1.1,3.7,3.31,0,.52-.09,1.13-.28,1.83-.19,.7-.4,1.25-.63,1.65H8.44v5.04h9.79c2.46,0,3.7,1.1,3.7,3.31,0,.52-.09,1.13-.28,1.83-.19,.7-.4,1.25-.63,1.65H8.44v11.22H1.18v-25.7Z"/><path d="M27.27,80.35c-.72-.77-1.09-1.69-1.09-2.76s.36-2.03,1.09-2.78c.72-.75,1.64-1.13,2.74-1.13s2.06,.38,2.78,1.13c.72,.75,1.09,1.68,1.09,2.78s-.36,1.99-1.09,2.76c-.72,.77-1.65,1.15-2.78,1.15s-2.02-.38-2.74-1.15Zm6.26,25.38h-7v-19.09c0-1.01,.32-1.78,.96-2.3,.64-.52,1.54-.78,2.7-.78,.58,0,1.16,.06,1.74,.17,.58,.12,1.12,.28,1.61,.48v21.53Z"/><path d="M38.54,80.11c0-1.01,.32-1.78,.96-2.3,.64-.52,1.54-.78,2.7-.78,.58,0,1.16,.06,1.74,.17,.58,.12,1.12,.28,1.61,.48v5.87h5c2.41,0,3.61,1.04,3.61,3.13,0,.58-.09,1.18-.26,1.8-.17,.62-.38,1.15-.61,1.59h-7.74v6.83c0,.99,.28,1.75,.83,2.28,.55,.54,1.35,.8,2.39,.8,.64,0,1.3-.09,2-.28,.7-.19,1.28-.43,1.74-.72l2.74,4.78c-.52,.46-1.23,.89-2.11,1.28-.88,.39-1.85,.7-2.89,.94-1.04,.23-2.09,.35-3.13,.35-2.55,0-4.62-.71-6.2-2.13-1.58-1.42-2.37-3.35-2.37-5.78v-18.31Z"/><path d="M55.63,96.18c-.49-.59-.74-1.43-.74-2.5,0-.55,.06-1.1,.17-1.65,.12-.55,.26-1.03,.44-1.44h8.61c.93,0,1.63,.3,2.11,.89,.48,.59,.72,1.43,.72,2.5,0,.55-.06,1.1-.17,1.65-.12,.55-.26,1.03-.44,1.44h-8.61c-.9,0-1.59-.3-2.09-.89Z"/><path d="M68.46,105.73c.61-1.59,1.34-3.46,2.2-5.59,.85-2.13,1.79-4.42,2.8-6.87,1.01-2.45,2.07-4.94,3.15-7.46s2.15-4.97,3.2-7.35c.52-1.19,1.18-2.04,1.98-2.57,.8-.52,1.86-.78,3.2-.78,.41,0,.89,.07,1.46,.22,.57,.15,1.1,.31,1.61,.5,.51,.19,.85,.38,1.02,.59,.29,.52,.74,1.44,1.35,2.76,.61,1.32,1.31,2.89,2.11,4.7,.8,1.81,1.63,3.75,2.5,5.81,.87,2.06,1.72,4.1,2.57,6.13,.84,2.03,1.59,3.91,2.26,5.63,.67,1.73,1.2,3.15,1.61,4.28h-8c-.35-1.01-.72-2.04-1.11-3.07-.39-1.03-.83-2.15-1.33-3.37h-12.66c-.38,.87-.75,1.8-1.11,2.78-.36,.99-.79,2.2-1.28,3.65h-7.52Zm15.22-19.96c-.46,1.16-.94,2.36-1.41,3.61-.48,1.25-.91,2.36-1.28,3.35h7.57c-.26-.72-.57-1.55-.94-2.48-.36-.93-.72-1.86-1.09-2.8-.36-.94-.7-1.8-1.02-2.59-.32-.78-.57-1.39-.74-1.83-.26,.67-.62,1.58-1.09,2.74Z"/><path d="M103.73,96.18c-.49-.59-.74-1.43-.74-2.5,0-.55,.06-1.1,.17-1.65,.12-.55,.26-1.03,.43-1.44h8.61c.93,0,1.63,.3,2.11,.89,.48,.59,.72,1.43,.72,2.5,0,.55-.06,1.1-.17,1.65-.12,.55-.26,1.03-.43,1.44h-8.61c-.9,0-1.59-.3-2.09-.89Z"/><path d="M119.38,79.76c0-2.15,1-3.42,3-3.83,.87-.17,1.94-.3,3.2-.37,1.26-.07,2.79-.11,4.59-.11,4.35,0,7.71,.91,10.09,2.74,2.38,1.83,3.57,4.41,3.57,7.74s-1.1,5.94-3.31,7.72c-2.2,1.78-5.41,2.67-9.61,2.67-.49,0-1.05-.01-1.67-.04-.62-.03-1.19-.07-1.7-.13-.51-.06-.86-.1-1.07-.13v9.7h-7.09v-25.96Zm17.01,6.18c0-2.84-2.09-4.26-6.26-4.26-.64,0-1.33,.01-2.07,.04-.74,.03-1.27,.07-1.59,.13v8.05c.78,.17,1.97,.26,3.57,.26,4.23,0,6.35-1.41,6.35-4.22Z"/><path d="M157.92,106.34c-2.32,0-4.36-.49-6.11-1.48-1.75-.99-3.12-2.36-4.11-4.11-.99-1.75-1.48-3.79-1.48-6.11s.51-4.31,1.54-6.07c1.03-1.75,2.44-3.13,4.24-4.13,1.8-1,3.84-1.5,6.13-1.5,1.91,0,3.62,.33,5.13,1,1.51,.67,2.7,1.58,3.57,2.74,.87,1.16,1.3,2.48,1.3,3.96,0,2.41-.95,4.16-2.85,5.26-1.9,1.1-4.97,1.65-9.2,1.65-.55,0-1.02,0-1.39-.02-.38-.01-.72-.04-1.04-.07,.17,.9,.78,1.62,1.83,2.17,1.04,.55,2.36,.83,3.96,.83,.58,0,1.25-.07,2-.2,.75-.13,1.47-.3,2.15-.52,.68-.22,1.18-.43,1.5-.63l2.44,4.87c-.67,.43-1.54,.83-2.63,1.2-1.09,.36-2.24,.64-3.46,.85-1.22,.2-2.39,.3-3.52,.3Zm.17-18.01c-1.33,0-2.46,.44-3.37,1.33-.91,.88-1.37,2.01-1.37,3.37,.23,.03,.47,.04,.72,.04h.67c2.38,0,4.08-.21,5.11-.63,1.03-.42,1.54-1.04,1.54-1.85,0-.67-.3-1.21-.91-1.63s-1.41-.63-2.39-.63Z"/><path d="M171.53,80.11c0-1.01,.32-1.78,.96-2.3,.64-.52,1.54-.78,2.7-.78,.58,0,1.16,.06,1.74,.17,.58,.12,1.12,.28,1.61,.48v5.87h5c2.41,0,3.61,1.04,3.61,3.13,0,.58-.09,1.18-.26,1.8-.17,.62-.38,1.15-.61,1.59h-7.74v6.83c0,.99,.28,1.75,.83,2.28,.55,.54,1.35,.8,2.39,.8,.64,0,1.3-.09,2-.28,.7-.19,1.28-.43,1.74-.72l2.74,4.78c-.52,.46-1.23,.89-2.11,1.28-.88,.39-1.85,.7-2.89,.94-1.04,.23-2.09,.35-3.13,.35-2.55,0-4.62-.71-6.2-2.13-1.58-1.42-2.37-3.35-2.37-5.78v-18.31Z"/></g></svg>